<svg width="256" height="256" viewBox="0 0 64 64" xmlns="http://www.w3.org/2000/svg" fill="none">
  <defs>
    <linearGradient id="shell" x1="12" y1="8" x2="52" y2="56" gradientUnits="userSpaceOnUse">
      <stop offset="0" stop-color="#F58A56"/>
      <stop offset="1" stop-color="#E2542A"/>
    </linearGradient>
    <linearGradient id="claw" x1="10" y1="10" x2="24" y2="26" gradientUnits="userSpaceOnUse">
      <stop offset="0" stop-color="#F7B186"/>
      <stop offset="1" stop-color="#E46A3B"/>
    </linearGradient>
  </defs>

  <!-- soft badge -->
  <rect x="4" y="4" width="56" height="56" rx="16" fill="#F7F1EA"/>
  <rect x="4" y="4" width="56" height="56" rx="16" stroke="#E7D7CB" stroke-width="1.5"/>

  <!-- claws -->
  <path d="M13 24c0-5.1 4.1-9.2 9.2-9.2 2.3 0 4.5.9 6.1 2.5-1.4 0-2.8.6-3.9 1.7-2.2 2.2-2.2 5.6 0 7.8l-4.1 3.6c-2-1.9-4.7-2.9-7.3-2.9z" fill="url(#claw)"/>
  <path d="M51 24c0-5.1-4.1-9.2-9.2-9.2-2.3 0-4.5.9-6.1 2.5 1.4 0 2.8.6 3.9 1.7 2.2 2.2 2.2 5.6 0 7.8l4.1 3.6c2-1.9 4.7-2.9 7.3-2.9z" fill="url(#claw)"/>

  <!-- head -->
  <path d="M22 41.5c0-5.8 4.7-10.6 10.6-10.6H31.4C37.3 30.9 42 35.7 42 41.5v1c0 3.2-2.6 5.8-5.8 5.8H27.8C24.6 48.3 22 45.7 22 42.5v-1z" fill="url(#shell)"/>

  <!-- eyes -->
  <circle cx="29" cy="38.8" r="2.1" fill="#2D1C14"/>
  <circle cx="35" cy="38.8" r="2.1" fill="#2D1C14"/>

  <!-- teeth -->

  <!-- antennae hint -->
  <path d="M32 20v-3" stroke="#E46A3B" stroke-width="2.4" stroke-linecap="round"/>
</svg>